<svg width="31" height="36" viewBox="0 0 31 36" fill="none" xmlns="http://www.w3.org/2000/svg">
<path d="M26.875 4.25H20.0825C19.4 2.22 17.6125 0.75 15.5 0.75C13.3875 0.75 11.6 2.22 10.9175 4.25H4.125C2.3375 4.25 0.875 5.825 0.875 7.75V32.25C0.875 34.175 2.3375 35.75 4.125 35.75H26.875C28.6625 35.75 30.125 34.175 30.125 32.25V7.75C30.125 5.825 28.6625 4.25 26.875 4.25ZM15.5 4.25C16.3938 4.25 17.125 5.0375 17.125 6C17.125 6.9625 16.3938 7.75 15.5 7.75C14.6062 7.75 13.875 6.9625 13.875 6C13.875 5.0375 14.6062 4.25 15.5 4.25ZM12.25 28.75L5.75 21.75L8.04125 19.2825L12.25 23.7975L22.9587 12.265L25.25 14.75L12.25 28.75Z" fill="black"/>
</svg>
